<?xml version="1.0" encoding="UTF-8" standalone="no"?>
<svg
   height="48"
   viewBox="0 96 960 960"
   width="48"
   version="1.1"
   id="svg2854"
   sodipodi:docname="code.svg"
   inkscape:version="1.2.2 (b0a8486541, 2022-12-01)"
   xmlns:inkscape="http://www.inkscape.org/namespaces/inkscape"
   xmlns:sodipodi="http://sodipodi.sourceforge.net/DTD/sodipodi-0.dtd"
   xmlns="http://www.w3.org/2000/svg"
   xmlns:svg="http://www.w3.org/2000/svg">
  <defs
     id="defs2858" />
  <sodipodi:namedview
     id="namedview2856"
     pagecolor="#ffffff"
     bordercolor="#666666"
     borderopacity="1.0"
     inkscape:showpageshadow="2"
     inkscape:pageopacity="0.0"
     inkscape:pagecheckerboard="0"
     inkscape:deskcolor="#d1d1d1"
     showgrid="false"
     inkscape:zoom="21.395833"
     inkscape:cx="23.976631"
     inkscape:cy="23.976631"
     inkscape:window-width="3836"
     inkscape:window-height="2085"
     inkscape:window-x="0"
     inkscape:window-y="54"
     inkscape:window-maximized="1"
     inkscape:current-layer="layer4" />
  <path
     d="M 639,780 624,764 812,576 624,387 l 16.5,-16.5 204,204 z"
     id="path2852"
     sodipodi:nodetypes="ccccccc" />
  <g
     inkscape:groupmode="layer"
     id="layer4"
     inkscape:label="Layer 1">
    <path
       d="m 343.18147,775.35929 -204,-204 204.5,-203.5 15,16 -188,188 188,188 z"
       id="path2883" />
    <path
       style="fill:#ff1947;stroke-width:0.0467381"
       d="m 12.089125,28.844724 -5.0860045,-5.086165 5.0865605,-5.053997 5.08656,-5.053997 0.338852,0.336158 c 0.186368,0.184886 0.338851,0.357676 0.338851,0.383978 0,0.0263 -2.108432,2.156331 -4.685405,4.733399 l -4.685405,4.685579 4.70928,4.709454 4.709281,4.709453 -0.363283,0.361152 -0.363282,0.361152 z"
       id="path2909"
       transform="matrix(20,0,0,20,0,96)" />
  </g>
</svg>
