<svg xmlns="http://www.w3.org/2000/svg" height="48" viewBox="0 96 960 960" width="48"><path d="M240.545 483.5q-61.545 0-104.795-43.111T92.5 336.113q0-62.613 43.111-105.613t104.276-43q62.613 0 105.613 42.834t43 105.121q0 61.545-42.834 104.795T240.545 483.5Zm-.431-22q53.386 0 89.886-36.637 36.5-36.638 36.5-88.977 0-53.386-36.293-89.886-36.292-36.5-89.942-36.5-52.598 0-89.182 36.293-36.583 36.292-36.583 89.942 0 52.598 36.637 89.182 36.638 36.583 88.977 36.583Zm426.386 502q-22.438 0-38.219-15.781Q612.5 931.938 612.5 909.5v-148q0-21.5 15.781-37.75T666.5 707.5h148q21.5 0 37.75 16.25t16.25 37.75v148q0 22.438-16.25 38.219Q836 963.5 814.5 963.5h-148Zm0-22h148q13.5 0 22.75-9t9.25-23v-148q0-13.5-9.25-22.75t-22.75-9.25h-148q-14 0-23 9.25t-9 22.75v148q0 14 9 23t23 9ZM740 836ZM240 336Zm445.5 51L291 779.5q6 9 9.25 19.237 3.25 10.238 3.25 19.263 0 27.125-18.995 45.812Q265.51 882.5 238.532 882.5q-27.532 0-46.282-18.708-18.75-18.708-18.75-45.912 0-27.355 18.627-46.367 18.626-19.013 45.664-19.013 9.584 0 19.647 3.25Q267.5 759 276.5 765L669 370.471q-6-7.971-8.75-16.766-2.75-8.795-2.75-19.528 0-28.577 19.25-47.127 19.249-18.55 45.37-18.55 28.38 0 46.88 18.482 18.5 18.483 18.5 46.02 0 26.998-18.55 46.248-18.55 19.25-47.127 19.25-10.776 0-19.608-2.854-8.833-2.854-16.715-8.646Z"/></svg>