<?xml version="1.0" encoding="UTF-8" standalone="no"?>
<svg
   height="48"
   viewBox="0 96 960 960"
   width="48"
   version="1.1"
   id="svg52"
   sodipodi:docname="draw3.svg"
   inkscape:version="1.2.2 (b0a8486541, 2022-12-01)"
   xmlns:inkscape="http://www.inkscape.org/namespaces/inkscape"
   xmlns:sodipodi="http://sodipodi.sourceforge.net/DTD/sodipodi-0.dtd"
   xmlns="http://www.w3.org/2000/svg"
   xmlns:svg="http://www.w3.org/2000/svg">
  <defs
     id="defs56">
    <clipPath
       clipPathUnits="userSpaceOnUse"
       id="clipPath2202">
      <g
         inkscape:label="Clip"
         id="use2204">
        <path
           d="m 370.01058,324.78764 c 0,34.02245 -9.81738,63.85177 -29.45214,89.48794 m 0,0 c -4.04414,5.28024 -8.50476,10.38259 -13.38186,15.30706 -28.556,28.83333 -63.59633,43.25 -105.121,43.25 -41.03,0 -75.96167,-14.37033 -104.795,-43.111 -28.83333,-28.74067 -43.25,-63.49933 -43.25,-104.276 0,-41.742 14.37033,-76.94633 43.111,-105.613 28.74067,-28.66667 63.49933,-43 104.276,-43 41.742,0 76.94633,14.278 105.613,42.834 28.66667,28.556 43,63.59633 43,105.121 m -148.386,126.045 c 35.59067,0 65.55267,-12.21233 89.886,-36.637 24.33333,-24.42533 36.5,-54.08433 36.5,-88.977 0,-35.59067 -12.09767,-65.55267 -36.293,-89.886 -24.19467,-24.33333 -54.17533,-36.5 -89.942,-36.5 -35.06533,0 -64.79267,12.09767 -89.182,36.293 -24.38867,24.19467 -36.583,54.17533 -36.583,89.942 0,35.06533 12.21233,64.79267 36.637,89.182 24.42533,24.38867 54.08433,36.583 88.977,36.583 z m 426.386,502 c -14.95867,0 -27.69833,-5.26033 -38.219,-15.781 -10.52067,-10.52067 -15.781,-23.26033 -15.781,-38.219 v -148 c 0,-14.33333 5.26033,-26.91667 15.781,-37.75 10.52067,-10.83333 23.26033,-16.25 38.219,-16.25 h 148 c 14.33333,0 26.91667,5.41667 37.75,16.25 10.83333,10.83333 16.25,23.41667 16.25,37.75 v 148 c 0,14.95867 -5.41667,27.69833 -16.25,38.219 -10.83333,10.52067 -23.41667,15.781 -37.75,15.781 z m 0,-22 h 148 c 9,0 16.58333,-3 22.75,-9 6.16667,-6 9.25,-13.66667 9.25,-23 v -148 c 0,-9 -3.08333,-16.58333 -9.25,-22.75 -6.16667,-6.16667 -13.75,-9.25 -22.75,-9.25 h -148 c -9.33333,0 -17,3.08333 -23,9.25 -6,6.16667 -9,13.75 -9,22.75 v 148 c 0,9.33333 3,17 9,23 6,6 13.66667,9 23,9 z m 19,-554.5 -394.5,392.5 c 4,6 7.08333,12.41233 9.25,19.237 2.16667,6.82533 3.25,13.24633 3.25,19.263 0,18.08333 -6.33167,33.354 -18.995,45.812 -12.66333,12.45867 -27.98767,18.688 -45.973,18.688 -18.35467,0 -33.782,-6.236 -46.282,-18.708 -12.5,-12.472 -18.75,-27.776 -18.75,-45.912 0,-18.23667 6.209,-33.69233 18.627,-46.367 12.41733,-12.67533 27.63867,-19.013 45.664,-19.013 6.38933,0 12.93833,1.08333 19.647,3.25 6.708,2.16667 13.062,5.25 19.062,9.25 l 392.5,-394.529 c -4,-5.314 -6.91667,-10.90267 -8.75,-16.766 -1.83333,-5.86333 -2.75,-12.37267 -2.75,-19.528 0,-19.05133 6.41667,-34.76033 19.25,-47.127 12.83267,-12.36667 27.956,-18.55 45.37,-18.55 18.92,0 34.54667,6.16067 46.88,18.482 12.33333,12.322 18.5,27.662 18.5,46.02 0,17.99867 -6.18333,33.41467 -18.55,46.248 -12.36667,12.83333 -28.07567,19.25 -47.127,19.25 -7.184,0 -13.72,-0.95133 -19.608,-2.854 -5.88867,-1.90267 -11.46033,-4.78467 -16.715,-8.646 z"
           id="path2206"
           style="fill:#000000;fill-opacity:1"
           sodipodi:nodetypes="cccssssssscscscssscssssssssssssssssssssssssssscccscssscscccsscscssscc"
           inkscape:label="path50" />
      </g>
    </clipPath>
  </defs>
  <sodipodi:namedview
     id="namedview54"
     pagecolor="#ffffff"
     bordercolor="#666666"
     borderopacity="1.0"
     inkscape:showpageshadow="2"
     inkscape:pageopacity="0.0"
     inkscape:pagecheckerboard="0"
     inkscape:deskcolor="#d1d1d1"
     showgrid="false"
     inkscape:zoom="15.129139"
     inkscape:cx="-7.6012258"
     inkscape:cy="17.218429"
     inkscape:window-width="3836"
     inkscape:window-height="1032"
     inkscape:window-x="0"
     inkscape:window-y="36"
     inkscape:window-maximized="1"
     inkscape:current-layer="layer2" />
  <g
     id="g2224">
    <g
       id="g2219">
      <g
         id="g2215">
        <g
           id="g2231">
          <g
             id="g2227">
            <path
               d="m 667.01058,376.33264 -394.5,392.5 c 4,6 7.08333,12.41233 9.25,19.237 2.16667,6.82533 3.25,13.24633 3.25,19.263 0,18.08333 -6.33167,33.354 -18.995,45.812 -12.66333,12.45867 -27.98767,18.688 -45.973,18.688 -18.35467,0 -33.782,-6.236 -46.282,-18.708 -12.5,-12.472 -18.75,-27.776 -18.75,-45.912 0,-18.23667 6.209,-33.69233 18.627,-46.367 12.41733,-12.67533 27.63867,-19.013 45.664,-19.013 6.38933,0 12.93833,1.08333 19.647,3.25 6.708,2.16667 13.062,5.25 19.062,9.25 l 392.5,-394.529 c -4,-5.314 -6.91667,-10.90267 -8.75,-16.766 -1.83333,-5.86333 -2.75,-12.37267 -2.75,-19.528 0,-19.05133 6.41667,-34.76033 19.25,-47.127 12.83267,-12.36667 27.956,-18.55 45.37,-18.55 18.92,0 34.54667,6.16067 46.88,18.482 12.33333,12.322 18.5,27.662 18.5,46.02 0,17.99867 -6.18333,33.41467 -18.55,46.248 -12.36667,12.83333 -28.07567,19.25 -47.127,19.25 -7.184,0 -13.72,-0.95133 -19.608,-2.854 -5.88867,-1.90267 -11.46033,-4.78467 -16.715,-8.646 z"
               id="path50"
               style="fill:#000000;fill-opacity:1"
               sodipodi:nodetypes="cccscssscscccsscscssscc"
               inkscape:label="path50" />
          </g>
        </g>
      </g>
    </g>
  </g>
  <g
     inkscape:groupmode="layer"
     id="layer1"
     inkscape:label="Layer 1">
    <path
       d="m 409.2342,352.99597 c 0,34.02245 -9.81738,63.85177 -29.45214,89.48794 m 0,0 c -4.04414,5.28024 -8.50476,10.38259 -13.38186,15.30706 -28.556,28.83333 -63.59633,43.25 -105.121,43.25 -41.03,0 -75.96167,-14.37033 -104.795,-43.111 -28.83332,-28.74067 -43.24999,-63.49933 -43.24999,-104.276 0,-41.742 14.37033,-76.94633 43.11099,-105.613 28.74067,-28.66667 63.49933,-43 104.276,-43 41.742,0 76.94633,14.278 105.613,42.834 28.66667,28.556 43,63.59633 43,105.121 m -148.386,126.045 c 35.59067,0 65.55267,-12.21233 89.886,-36.637 24.33333,-24.42533 36.5,-54.08433 36.5,-88.977 0,-35.59067 -12.09767,-65.55267 -36.293,-89.886 -24.19467,-24.33333 -54.17533,-36.5 -89.942,-36.5 -35.06533,0 -64.79267,12.09767 -89.182,36.293 -24.38867,24.19467 -36.58299,54.17533 -36.58299,89.942 0,35.06533 12.21232,64.79267 36.63699,89.182 24.42533,24.38867 54.08433,36.583 88.977,36.583 z"
       style="fill:#000000;fill-opacity:1"
       id="path2256" />
  </g>
  <g
     inkscape:groupmode="layer"
     id="layer2"
     inkscape:label="Layer 2">
    <path
       d="m 642.39778,894.56741 c -14.95867,0 -27.69833,-5.26033 -38.219,-15.781 -10.52067,-10.52067 -15.781,-23.26033 -15.781,-38.219 v -148 c 0,-14.33333 5.26033,-26.91667 15.781,-37.75 10.52067,-10.83333 23.26033,-16.25 38.219,-16.25 h 148 c 14.33333,0 26.91667,5.41667 37.75,16.25 10.83333,10.83333 16.25,23.41667 16.25,37.75 v 148 c 0,14.95867 -5.41667,27.69833 -16.25,38.219 -10.83333,10.52067 -23.41667,15.781 -37.75,15.781 z m 0,-22 h 148 c 9,0 16.58333,-3 22.75,-9 6.16667,-6 9.25,-13.66667 9.25,-23 v -148 c 0,-9 -3.08333,-16.58333 -9.25,-22.75 -6.16667,-6.16667 -13.75,-9.25 -22.75,-9.25 h -148 c -9.33333,0 -17,3.08333 -23,9.25 -6,6.16667 -9,13.75 -9,22.75 v 148 c 0,9.33333 3,17 9,23 6,6 13.66667,9 23,9 z"
       style="fill:#000000;fill-opacity:1"
       id="path2379" />
  </g>
  <path
     style="fill:#ff1947;fill-opacity:1;stroke-width:1.32195"
     d="m 203.25564,909.2311 c -13.69015,-3.22736 -28.71851,-14.15548 -36.92271,-26.84898 -17.1248,-26.4954 -12.88512,-61.01918 10.13831,-82.55648 20.44783,-19.12792 46.19196,-22.41516 73.08036,-9.33154 4.56242,2.22002 8.7576,3.84308 9.32262,3.6068 0.565,-0.2362 89.1253,-89.00922 196.80058,-197.27316 l 195.77326,-196.84356 -3.77454,-6.1344 c -14.25118,-23.16114 -8.71282,-58.03261 12.30778,-77.49397 12.8904,-11.93424 27.74674,-17.82773 44.56654,-17.67947 36.3973,0.32082 63.55196,27.68719 63.49076,63.98574 -0.03,17.4154 -6.04208,31.9304 -18.6779,45.08928 -12.75532,13.28336 -26.75826,19.08502 -46.02932,19.07078 -11.90624,-0.009 -17.82222,-1.4334 -28.73446,-6.91906 l -8.19146,-4.11794 -197.04164,196.0473 C 360.99092,719.65846 272.32218,808.17912 272.32218,808.545 c 0,0.366 1.8064,4.3345 4.01414,8.81914 15.69688,31.88488 6.65628,65.73174 -22.52148,84.31764 -12.51868,7.97426 -34.7045,11.28696 -50.5592,7.54932 z"
     id="path2474" />
</svg>
