<svg xmlns="http://www.w3.org/2000/svg" height="48" viewBox="0 96 960 960" width="48"><path d="M361 884H194q-8.325 0-15.163-6.838Q172 870.325 172 862V695q28.5-13.5 46.25-40.697 17.75-27.197 17.75-59.5T218.5 536Q201 509.5 172 495V328q0-8.325 6.837-15.162Q185.675 306 194 306h165q16.5-30.5 43.342-48.25Q429.183 240 461.683 240t59.159 17.75Q547.5 275.5 564 306h164q8.325 0 15.162 6.838Q750 319.675 750 328v164q30.5 16.5 47.75 43.658Q815 562.817 815 595.317t-17.25 58.841Q780.5 680.5 750 697v165q0 8.325-6.838 15.162Q736.325 884 728 884H561q-15.5-31-43.022-47.5T460.853 820Q432 820 403.75 836.5T361 884Zm-167-22h160.5q14-30 42.316-47 28.317-17 64.25-17 35.934 0 64.184 17t43.14 47H728V681h-11q38.6-6 57.3-31.4Q793 624.2 793 596q0-28.2-18.7-54.1Q755.6 516 717 510h11V328H547v10q-6-38.6-31.4-57.3-25.4-18.7-54.1-18.7-28.7 0-54.1 18.7Q382 299.4 376 338v-10H194v156.593q31.65 15.724 47.825 46.028Q258 560.925 258 595.763q0 34.267-16 64.252Q226 690 194 704.5V862Zm300-300.5Z"/></svg>